<?xml version="1.0" encoding="UTF-8"?> <!-- Generator: Adobe Illustrator 21.0.0, SVG Export Plug-In . SVG Version: 6.00 Build 0) --> <svg xmlns="http://www.w3.org/2000/svg" xmlns:xlink="http://www.w3.org/1999/xlink" id="Capa_1" x="0px" y="0px" viewBox="0 0 80 80" style="enable-background:new 0 0 80 80;" xml:space="preserve"> <style type="text/css"> .st0{fill:#CACCCE;} </style> <g> <path class="st0" d="M78.8,60.4c0.6,0,1.2-0.5,1.2-1.2v-47c0-5-2.9-9.4-7.6-11.3C67.7-1,62.6,0,59.1,3.6l-7.5,7.4c0,0,0,0-0.1,0.1 c-9.3-6.8-22.3-6.2-31,1.8c-1.8-1-4.2-0.6-5.5,0.9c-1.5,1.7-1.4,4.4,0.2,6l2.4,2.4c1.1,1.1,2.7-0.6,1.7-1.7l-2.4-2.4 c-1.9-1.9,1-4.8,2.9-2.9l32.9,32.9c1.9,1.9-1.1,4.8-2.9,2.9L23.2,24.5c-1.1-1.1-2.7,0.6-1.7,1.7l26.7,26.7c1.5,1.5,4,1.7,5.8,0.4 c1.8-1.3,2.3-3.8,1.2-5.8c4.2-4.5,6.5-10.4,6.5-16.6c0-5.5-1.8-10.8-5.2-15.1l7.3-7.3c2-2,4.6-2,6.3-1.3c1.7,0.7,3.6,2.5,3.6,5.4 v64.2c0,1.7,1.5,3.2,3.2,3.2s3.2-1.5,3.2-3.2V64.5c0-1.5-2.3-1.5-2.3,0v12.3c0,1.1-1.7,1.1-1.7,0V12.6c0-3.4-1.9-6.2-5-7.5 c-3.1-1.3-6.5-0.6-8.9,1.8L54.9,14c-0.5-0.5-1-1-1.5-1.4l7.3-7.3c2.9-2.9,7-3.7,10.8-2.1c3.8,1.6,6.1,5.1,6.1,9.1v47 C77.6,59.9,78.1,60.4,78.8,60.4z M59.3,30.9c0,5.5-2,10.7-5.7,14.8L38.4,30.5l-16-16c8.7-7.8,22.1-7.5,30.4,0.8 C57,19.4,59.3,25,59.3,30.9z"></path> <path class="st0" d="M31.5,57.3l-3.6,3.6c-1.1,1.1,0.6,2.7,1.7,1.7l3.6-3.6C34.2,57.9,32.5,56.2,31.5,57.3z"></path> <path class="st0" d="M23.5,49.3l-3.6,3.6c-1.1,1.1,0.6,2.7,1.7,1.7l3.6-3.6C26.3,49.9,24.6,48.3,23.5,49.3z"></path> <path class="st0" d="M43.6,53.8L40,57.4c-1.1,1.1,0.6,2.7,1.7,1.7l3.6-3.6C46.4,54.4,44.7,52.8,43.6,53.8z"></path> <path class="st0" d="M35.6,45.8L32,49.4c-1.1,1.1,0.6,2.7,1.7,1.7l3.6-3.6C38.3,46.4,36.7,44.7,35.6,45.8z"></path> <path class="st0" d="M29.2,37.8c-0.5-0.5-1.2-0.5-1.7,0L24,41.4c-1.1,1.1,0.6,2.7,1.7,1.7l3.6-3.6C29.7,39,29.7,38.2,29.2,37.8z"></path> <path class="st0" d="M17.6,35l3.6-3.6c1.1-1.1-0.6-2.7-1.7-1.7L16,33.4C14.9,34.4,16.6,36.1,17.6,35z"></path> <path class="st0" d="M8.8,27.3c0.3,0,0.6-0.1,0.8-0.3l3.6-3.6c1.1-1.1-0.6-2.7-1.7-1.7L8,25.3C7.2,26.1,7.8,27.3,8.8,27.3z"></path> <path class="st0" d="M12,45c-1.1,1.1,0.6,2.7,1.7,1.7l3.6-3.6c1.1-1.1-0.6-2.7-1.7-1.7L12,45z"></path> <path class="st0" d="M4.9,39.1c0.3,0,0.6-0.1,0.8-0.3l3.6-3.6c1.1-1.1-0.6-2.7-1.7-1.7l-3.6,3.6C3.3,37.8,3.9,39.1,4.9,39.1z"></path> <path class="st0" d="M11.9,53.4L8.3,57C7.3,58,8.9,59.7,10,58.6l3.5-3.5C14.6,54,12.9,52.4,11.9,53.4z"></path> <path class="st0" d="M3.9,45.5L0.4,49C-0.7,50.1,1,51.8,2,50.7l3.5-3.5C6.6,46.1,5,44.4,3.9,45.5z"></path> <path class="st0" d="M19.8,61.4l-3.5,3.5c-1.1,1.1,0.6,2.7,1.7,1.7l3.5-3.5C22.5,62,20.9,60.3,19.8,61.4z"></path> </g> </svg> 