<?xml version="1.0" encoding="UTF-8"?> <!-- Generator: Adobe Illustrator 21.0.0, SVG Export Plug-In . SVG Version: 6.00 Build 0) --> <svg xmlns="http://www.w3.org/2000/svg" xmlns:xlink="http://www.w3.org/1999/xlink" id="Layer_1" x="0px" y="0px" viewBox="0 0 80 80" style="enable-background:new 0 0 80 80;" xml:space="preserve"> <style type="text/css"> .st0{fill:#CACCCE;} </style> <g> <g> <path class="st0" d="M76.7,40.8v-6.7c0-5.1-3.3-8.3-8.3-8.3H30c-5.1,0-8.3,3.3-8.3,8.3v6.6l-16.2,0H3.3V12.5 c0-0.8-0.6-1.6-1.4-1.7c-1-0.1-1.9,0.6-1.9,1.6v54.9c0,0.8,0.6,1.6,1.4,1.7c1,0.1,1.9-0.7,1.9-1.7v-10h73.3v9.9 c0,0.8,0.6,1.6,1.4,1.7c1,0.1,1.9-0.7,1.9-1.7V44.2C80,41.9,78.9,40.8,76.7,40.8z M25,34.2c0-4.3,3.1-5,5-5h38.3c1.9,0,5,0.6,5,5 v6.7H25V34.2z M76.7,54.2H3.3v-10h73.3L76.7,54.2L76.7,54.2z"></path> </g> </g> <g> <g> <path class="st0" d="M12.6,22.3c-5.1,0-9.3,4.1-9.3,9.3s4.1,9.3,9.3,9.3s9.3-4.1,9.3-9.3S17.7,22.3,12.6,22.3z M12.6,37.8 c-3.5,0-6.3-2.8-6.3-6.3s2.8-6.3,6.3-6.3s6.3,2.8,6.3,6.3S16.1,37.8,12.6,37.8z"></path> </g> </g> </svg> 