<?xml version="1.0" encoding="UTF-8"?> <!-- Generator: Adobe Illustrator 21.0.0, SVG Export Plug-In . SVG Version: 6.00 Build 0) --> <svg xmlns="http://www.w3.org/2000/svg" xmlns:xlink="http://www.w3.org/1999/xlink" id="Layer_1" x="0px" y="0px" viewBox="0 0 80 80" style="enable-background:new 0 0 80 80;" xml:space="preserve"> <style type="text/css"> .st0{fill:#CACCCE;} </style> <g> <g> <circle class="st0" cx="69" cy="52.8" r="1.6"></circle> </g> </g> <g> <g> <circle class="st0" cx="9.5" cy="52.8" r="1.6"></circle> </g> </g> <g> <g> <path class="st0" d="M77.2,76.9H63.8l-0.1-38.4c0-0.9-0.7-1.6-1.6-1.6c0,0,0,0,0,0c-0.9,0-1.6,0.7-1.6,1.6l0.1,38.4h-4.5l0-17.1 c0-0.9-0.7-1.6-1.6-1.6c0,0,0,0,0,0c-0.9,0-1.6,0.7-1.6,1.6l0,17.1h-3.8V56.2c4.4-0.4,7.9-4,7.9-8.4V32.6c0-2.4-0.5-4.8-1.5-6.9 c3.1,0.2,6,1.5,8.2,3.6c2.4,2.3,3.8,5.4,3.8,8.7l0,8.9c0,0.9,0.7,1.6,1.6,1.6c0,0,0,0,0,0c0.9,0,1.6-0.7,1.6-1.6l0-8.9 c0-4.2-1.7-8.1-4.7-11c-1.7-1.7-3.8-2.9-6-3.7c1.6-1.5,2.6-3.6,2.6-6c0-4.6-3.7-8.3-8.3-8.3c0,0,0,0,0,0c-1.3,0-2.6,0.3-3.8,0.9 c-0.8,0.4-1.1,1.3-0.7,2.1c0.4,0.8,1.3,1.1,2.1,0.7c0.7-0.4,1.5-0.6,2.4-0.6c2.8,0,5.1,2.3,5.2,5.1c0,2.8-2.3,5.1-5.1,5.2 c-0.1,0-0.1,0-0.2,0c-0.1,0-0.2,0-0.2,0c-2.3-3.1-5.4-5.3-9-6.5c1.9-1.7,3.1-4.1,3.1-6.9c0-5.1-4.1-9.2-9.2-9.2 c-5.1,0-9.2,4.1-9.2,9.2c0,2.9,1.3,5.4,3.4,7.1c-3.3,1.2-6.2,3.3-8.3,6.2c-0.2,0-0.5,0-0.7,0c-0.1,0-0.2,0-0.3,0c0,0-0.1,0-0.1,0 c-2.8,0-5.1-2.3-5.1-5.1s2.3-5.1,5.1-5.1c0.9,0,1.7,0.2,2.5,0.6c0.8,0.4,1.7,0.1,2.1-0.6c0.4-0.8,0.1-1.7-0.6-2.1 c-1.2-0.7-2.6-1-3.9-1c-4.6,0-8.3,3.7-8.3,8.3c0,2.5,1.1,4.7,2.8,6.2C12.2,25.9,8,31.5,8,38v8.9c0,0.9,0.7,1.6,1.6,1.6 s1.6-0.7,1.6-1.6V38c0-6.5,5.2-11.8,11.7-12.4c-1,2.2-1.5,4.5-1.5,6.9v15.1c0,4.5,3.6,8.2,8.2,8.5v20.7h-4.3V59.8 c0-0.9-0.7-1.6-1.6-1.6s-1.6,0.7-1.6,1.6v17.1h-3.8V38.5c0-0.9-0.7-1.6-1.6-1.6c-0.9,0-1.6,0.7-1.6,1.6v38.4H2.8 c-0.9,0-1.6,0.7-1.6,1.6c0,0.9,0.7,1.6,1.6,1.6h74.5c0.9,0,1.6-0.7,1.6-1.6C78.8,77.6,78.1,76.9,77.2,76.9z M32.7,9.2 c0-3.3,2.7-6,6-6c3.3,0,6,2.7,6,6s-2.7,6-6,6C35.4,15.2,32.7,12.5,32.7,9.2z M47.7,31.6c-0.9,0-1.6,0.7-1.6,1.6v43.7h-5.6V55.1 c0-0.9-0.7-1.6-1.6-1.6c-0.9,0-1.6,0.7-1.6,1.6v21.7h-4.8V33.1c0-0.9-0.7-1.6-1.6-1.6c-0.9,0-1.6,0.7-1.6,1.6v19.9 c-2.8-0.3-5-2.5-5-5.3V32.6c0-2.7,0.8-5.3,2.3-7.6c2.7-4.2,7.4-6.7,12.5-6.7c5.1,0,9.8,2.5,12.5,6.7c1.5,2.3,2.3,4.9,2.3,7.6v15.1 c0,2.7-2.1,4.9-4.8,5.3V33.1C49.2,32.3,48.5,31.6,47.7,31.6z"></path> </g> </g> </svg> 