<?xml version="1.0" encoding="UTF-8"?> <!-- Generator: Adobe Illustrator 21.0.0, SVG Export Plug-In . SVG Version: 6.00 Build 0) --> <svg xmlns="http://www.w3.org/2000/svg" xmlns:xlink="http://www.w3.org/1999/xlink" id="Layer_1" x="0px" y="0px" viewBox="0 0 80 80" style="enable-background:new 0 0 80 80;" xml:space="preserve"> <style type="text/css"> .st0{fill:#CACCCE;} </style> <g> <g> <path class="st0" d="M79.1,32.5L41.2,4.7c-0.7-0.5-1.7-0.5-2.5,0L0.9,32.5c-0.9,0.7-1.1,2-0.4,2.9c0.7,0.9,2,1.1,2.9,0.4L40,9 l36.7,26.9c0.4,0.3,0.8,0.4,1.2,0.4c0.6,0,1.3-0.3,1.7-0.9C80.3,34.5,80.1,33.2,79.1,32.5z"></path> </g> </g> <g> <g> <path class="st0" d="M69.1,36.3c-1.1,0-2.1,0.9-2.1,2.1v33.1H50.4V53.4C50.4,47.7,45.7,43,40,43s-10.4,4.7-10.4,10.4v18.1H13V38.4 c0-1.1-0.9-2.1-2.1-2.1s-2.1,0.9-2.1,2.1v35.2c0,1.1,0.9,2.1,2.1,2.1h20.8c1.1,0,2-0.8,2.1-1.9c0,0,0-0.1,0-0.2V53.4 c0-3.4,2.8-6.2,6.2-6.2s6.2,2.8,6.2,6.2v20.1c0,0.1,0,0.1,0,0.2c0.1,1.1,1,1.9,2.1,1.9h20.8c1.1,0,2.1-0.9,2.1-2.1V38.4 C71.2,37.3,70.2,36.3,69.1,36.3z"></path> </g> </g> </svg> 